<?xml version="1.0" encoding="utf-8"?>
<!-- Generator: Adobe Illustrator 27.0.1, SVG Export Plug-In . SVG Version: 6.00 Build 0)  -->
<svg version="1.1" id="Layer_1" xmlns="http://www.w3.org/2000/svg" xmlns:xlink="http://www.w3.org/1999/xlink" x="0px" y="0px"
	 viewBox="0 0 2963 1520" style="enable-background:new 0 0 2963 1520;" xml:space="preserve">
<style type="text/css">
	.st0{opacity:0.1;}
	.st1{fill:#0100D0;}
</style>
<g>
	<g class="st0">
		<g>
			<path class="st1" d="M1457.4,994c0,0-33.1-4.2-52.6-24.2c0,0,4.9,36.8,43.1,43.4L1457.4,994z"/>
			<path class="st1" d="M1429.1,974.9c0,0,4.8-16,5.5-38.6c0.7-19.8-6.8-43.3-11.8-42.5c-5,0.7,4.9,14.8,2.1,45.5
				c-1,11-0.9,17.2-5.2,30.6L1429.1,974.9z"/>
			<path class="st1" d="M1246.9,1082.7c0,0-11.4-19.7-36.4-14c-14.3,3.2-21.9,20.5-31,22.7c0,0,5.8,12.4,17.5,3.8
				c10.7-7.8,30.7-15.3,41-4.2L1246.9,1082.7z"/>
		</g>
		<g>
			<path class="st1" d="M2047.6,943.6c0,0-33.1-4.2-52.6-24.2c0,0,4.9,36.8,43.1,43.4L2047.6,943.6z"/>
			<path class="st1" d="M2019.3,924.6c0,0,4.8-16,5.5-38.7c0.7-19.8-6.8-43.2-11.8-42.5c-5,0.7,4.9,14.8,2.2,45.5
				c-1,11-0.9,17.2-5.2,30.6L2019.3,924.6z"/>
			<path class="st1" d="M1837.2,1032.4c0,0-11.4-19.7-36.4-14c-14.3,3.2-21.9,20.5-31,22.7c0,0,5.8,12.4,17.5,3.8
				c10.7-7.8,30.7-15.3,41-4.2L1837.2,1032.4z"/>
		</g>
		<g>
			<path class="st1" d="M2637.9,893.2c0,0-33.1-4.2-52.6-24.2c0,0,4.9,36.8,43.1,43.4L2637.9,893.2z"/>
			<path class="st1" d="M2609.6,874.2c0,0,4.8-16,5.5-38.6c0.7-19.8-6.8-43.3-11.8-42.5c-5,0.7,4.9,14.8,2.2,45.5
				c-1,11-0.9,17.2-5.2,30.6L2609.6,874.2z"/>
			<path class="st1" d="M2427.4,982c0,0-11.4-19.7-36.4-14c-14.3,3.2-21.9,20.5-31,22.7c0,0,5.8,12.4,17.5,3.8
				c10.7-7.8,30.7-15.3,41-4.2L2427.4,982z"/>
		</g>
		<g>
			<path class="st1" d="M422.6,1003.4c-0.1,5.3-4.5,9.5-9.8,9.3c-5.3-0.1-9.5-4.5-9.3-9.8c0.1-5.3,4.5-9.5,9.8-9.3
				C418.5,993.7,422.7,998.1,422.6,1003.4z"/>
		</g>
	</g>
	<g>
		<g>
			<path class="st1" d="M1469.1,942.1c0,0-61.5-24.3-70.7-60.1c-5.1-19.7,13.3-33.9,11.2-45c-2.1-11.1-22.1,39.8-26,28
				c-3.9-11.7-3.8-24-2.1-35.4c3.8-25,15.7-45.5,10.9-45.5c-5.5,0-18.3,23.7-21,54.4c-2.8,32,20,48.3,17.3,49.9
				c-2.3,1.4-7.7-1.1-11.5-5.3c-7-7.7-12.8-20.3-14.4-18.2c-2.4,3.2,5.7,22.8,20.5,32.9c2.2,1.5-2.6,3.9-8.3,2
				c-5.1-1.7-10.3-4.8-11-3.9c-1.6,1.9,14.9,19.6,44.3,28.3c29.4,8.7,30.1,24.1,41.1,23L1469.1,942.1z"/>
			<path class="st1" d="M1504.6,999.3c-15.8,11.6-39.7,3.6-39.7,3.6s10,31.9-11.6,62.3c69.1,27.6,57.3,39,46.6,57
				c-5.1,8.6-13,20.2-24.8,33.8c-7,8.1-11.6,14.6-14.5,20c-10.6,19.4,5.1,42-5.7,40.3c-5.7-0.9-15.1-1.8-14.8-8.7
				c0.3-6.9,8.4-31.5,20.4-45.6c8.9-10.4,19.3-31.5,23.7-46.6c-11.8,1.7-17.6-0.2-17.6-0.2s20.9,15.9,15.1,25.8
				c-5.7,9.9-24.4,14.2-35.7,49.6c-11.1,34.7-7.4,67.9-7.4,67.9s8.4,4,6.4,9.6c-2.1,5.8-10.6,5.3-19.4,3.7c-9.9-1.9-1.4-9.6-0.9-18
				c1.5-25.4,4.1-83.4,30.6-121.4c-53.7,34.6-124,34.9-169.1-3.1c0,0-8.6,33-49.4,39.7c0,0-12.8,65.9-13.2,77.6
				c-0.5,11.7,11.4,13.5,7.3,18.2c-2.8,3.2-15.9,2-20.5-0.8c-4.6-2.8,9.4-60.6,5.7-82.9c0,0-5.4,26.3-14.7,42.9
				c0,0-7.9,13.2-11,24.8c-3.2,12,8.2,10.1,5.2,15.8c-2.4,4.7-23.2,3-22.9-3.7c0.5-12.6,4.9-21.3,19.8-43.8
				c17.9-27.1,4.2-67.5,4.9-104.3c0.7-37.4,9.8-61.3,33.1-77.6c27.5-19.2,76.7-21.8,128.4-9.5c43.3,10.3,69-47.5,69-47.5
				c8.6-20.7,17.4-44.6,49-40.5c20.4,2.7,21.3,20.4,61.1,22.2c12.5,0.6,10.3,16,3.8,23.1C1541.7,983.1,1526.1,983.5,1504.6,999.3z"
				/>
			<path class="st1" d="M1465,948.8c0,0-33.2-3.4-53.2-22.9c0,0,5.8,36.7,44.1,42.4L1465,948.8z"/>
			<path class="st1" d="M1472.2,956.6c0,0,26.2-27,19-59.3c0,0,30.3-20.1,19.1-49.5c0,0-12.4,29.6-28.5,31.5
				c0,0,15.3-47.7-18.5-68.8c0,0,19.6,62.8,2.5,57.5c-27.4-8.6-30-46.9-30-46.9s-17.7,26.2,18.4,53.6c36.1,27.4,27.3,48.4,10.6,79.6
				L1472.2,956.6z"/>
			<path class="st1" d="M1436.2,930.5c0,0,4.4-16.1,4.5-38.8c0.2-19.8-7.9-43.1-12.8-42.2c-5,0.8,5.3,14.7,3.3,45.4
				c-0.7,11-0.5,17.2-4.5,30.7L1436.2,930.5z"/>
			<path class="st1" d="M1256.7,1042.8c0,0-11.9-19.4-36.7-13.1c-14.2,3.6-21.4,21-30.4,23.5c0,0,6.1,12.2,17.6,3.3
				c10.5-8.1,30.3-16,40.8-5.2L1256.7,1042.8z"/>
		</g>
		<g>
			<path class="st1" d="M2058,877.2c0,0-61.5-24.3-70.7-60.1c-5.1-19.7,13.3-33.9,11.2-45c-2.1-11.1-22.1,39.8-26,28
				c-3.9-11.7-3.8-24-2-35.4c3.8-25,15.7-45.5,10.9-45.5c-5.5,0-18.3,23.7-21,54.4c-2.8,32,20,48.3,17.3,49.9
				c-2.3,1.4-7.7-1.1-11.5-5.3c-7-7.7-12.8-20.3-14.4-18.2c-2.4,3.2,5.7,22.8,20.5,32.9c2.2,1.5-2.6,3.9-8.3,2
				c-5.1-1.7-10.3-4.8-11-3.9c-1.6,1.9,14.9,19.6,44.3,28.3c29.4,8.7,30.1,24.1,41.1,23L2058,877.2z"/>
			<path class="st1" d="M2093.5,934.4c-15.8,11.6-39.7,3.6-39.7,3.6s10,31.9-11.6,62.3c69.1,27.6,57.3,39,46.6,57
				c-5.1,8.6-13,20.2-24.8,33.8c-7,8.1-11.6,14.6-14.5,20c-10.6,19.4,5.1,42-5.7,40.3c-5.7-0.9-15.1-1.8-14.8-8.7
				c0.3-6.9,8.4-31.5,20.4-45.5c8.9-10.4,19.3-31.5,23.7-46.6c-11.8,1.7-17.6-0.2-17.6-0.2s20.9,15.9,15.1,25.8
				c-5.7,9.9-24.4,14.2-35.7,49.6c-11.1,34.7-7.4,67.9-7.4,67.9s8.4,4,6.4,9.6c-2.1,5.8-10.6,5.3-19.4,3.7c-9.9-1.9-1.3-9.6-0.8-18
				c1.5-25.4,4.1-83.4,30.6-121.4c-53.7,34.6-124,34.9-169.1-3.1c0,0-8.6,33-49.4,39.7c0,0-12.8,65.9-13.2,77.5
				c-0.5,11.7,11.4,13.5,7.3,18.3c-2.8,3.2-15.9,2-20.5-0.8c-4.6-2.8,9.4-60.6,5.7-82.9c0,0-5.4,26.3-14.7,42.9
				c0,0-7.9,13.2-11,24.8c-3.2,12,8.2,10.1,5.2,15.8c-2.4,4.7-23.2,3-22.9-3.6c0.5-12.6,4.9-21.3,19.8-43.8
				c17.9-27.1,4.2-67.5,4.9-104.3c0.7-37.4,9.8-61.3,33.1-77.6c27.5-19.2,76.8-21.8,128.4-9.5c43.3,10.3,69-47.5,69-47.5
				c8.6-20.7,17.4-44.6,49-40.5c20.4,2.7,21.3,20.4,61,22.2c12.5,0.6,10.3,16,3.8,23.1C2130.5,918.2,2114.9,918.6,2093.5,934.4z"/>
			<path class="st1" d="M2053.8,883.9c0,0-33.2-3.4-53.2-22.9c0,0,5.8,36.7,44.1,42.4L2053.8,883.9z"/>
			<path class="st1" d="M2061,891.7c0,0,26.2-27,19-59.3c0,0,30.3-20.1,19.1-49.5c0,0-12.4,29.6-28.5,31.5c0,0,15.4-47.7-18.5-68.8
				c0,0,19.6,62.8,2.5,57.5c-27.4-8.6-30-46.9-30-46.9s-17.7,26.2,18.4,53.6c36.1,27.4,27.3,48.4,10.6,79.6L2061,891.7z"/>
			<path class="st1" d="M2025.1,865.6c0,0,4.4-16.1,4.5-38.8c0.2-19.8-7.9-43.1-12.8-42.2c-5,0.8,5.3,14.7,3.3,45.4
				c-0.7,11-0.5,17.3-4.5,30.7L2025.1,865.6z"/>
			<path class="st1" d="M1845.6,977.9c0,0-11.9-19.4-36.7-13.1c-14.2,3.6-21.4,21-30.4,23.5c0,0,6.1,12.3,17.6,3.3
				c10.5-8.1,30.3-16,40.8-5.2L1845.6,977.9z"/>
		</g>
		<g>
			<path class="st1" d="M2646.9,812.3c0,0-61.6-24.3-70.7-60.1c-5.1-19.7,13.3-33.9,11.2-45c-2.1-11.1-22.1,39.8-26,28
				c-3.9-11.7-3.8-24-2-35.4c3.8-25,15.7-45.5,10.9-45.5c-5.5,0-18.3,23.7-21,54.4c-2.8,32,20,48.3,17.3,49.9
				c-2.3,1.4-7.7-1.1-11.5-5.3c-7-7.7-12.8-20.3-14.4-18.2c-2.4,3.2,5.7,22.8,20.5,32.9c2.2,1.5-2.6,3.9-8.3,2
				c-5.1-1.7-10.3-4.8-11-3.9c-1.6,1.9,14.9,19.6,44.3,28.3c29.4,8.7,30.1,24.1,41.1,23L2646.9,812.3z"/>
			<path class="st1" d="M2682.3,869.6c-15.8,11.6-39.7,3.6-39.7,3.6s10,31.9-11.6,62.3c69.1,27.6,57.3,39,46.6,57
				c-5.1,8.6-13,20.2-24.8,33.8c-7,8.1-11.5,14.6-14.5,20c-10.6,19.4,5.1,42-5.7,40.3c-5.7-0.9-15.1-1.8-14.8-8.7
				c0.3-6.9,8.4-31.5,20.4-45.6c8.9-10.4,19.3-31.5,23.7-46.6c-11.8,1.7-17.6-0.2-17.6-0.2s20.9,15.9,15.1,25.8
				c-5.8,9.9-24.4,14.2-35.7,49.6c-11.1,34.7-7.4,67.9-7.4,67.9s8.4,4,6.4,9.6c-2.1,5.8-10.6,5.3-19.4,3.7c-9.9-1.9-1.4-9.6-0.8-18
				c1.5-25.4,4.1-83.4,30.6-121.4c-53.7,34.6-124,34.9-169.1-3.1c0,0-8.6,33-49.4,39.7c0,0-12.8,65.9-13.2,77.6
				c-0.5,11.7,11.4,13.5,7.3,18.2c-2.8,3.2-15.9,2-20.5-0.8c-4.6-2.8,9.4-60.6,5.7-82.9c0,0-5.4,26.3-14.7,42.9
				c0,0-7.9,13.2-11.1,24.8c-3.2,12,8.2,10.1,5.2,15.8c-2.4,4.7-23.1,3-22.9-3.6c0.5-12.6,4.9-21.3,19.8-43.8
				c17.9-27.1,4.2-67.5,4.9-104.3c0.7-37.4,9.8-61.3,33.1-77.6c27.5-19.2,76.7-21.8,128.4-9.5c43.3,10.3,69-47.5,69-47.5
				c8.6-20.7,17.4-44.6,49-40.5c20.4,2.7,21.3,20.4,61.1,22.2c12.5,0.6,10.3,16,3.8,23.1C2719.4,853.3,2703.8,853.7,2682.3,869.6z"
				/>
			<path class="st1" d="M2642.7,819c0,0-33.2-3.4-53.2-22.9c0,0,5.8,36.7,44.1,42.4L2642.7,819z"/>
			<path class="st1" d="M2649.9,826.8c0,0,26.2-27,19-59.3c0,0,30.3-20.1,19.1-49.5c0,0-12.4,29.6-28.5,31.5
				c0,0,15.3-47.7-18.5-68.8c0,0,19.6,62.8,2.5,57.5c-27.4-8.6-30-46.9-30-46.9s-17.7,26.2,18.4,53.6c36.1,27.4,27.3,48.4,10.6,79.6
				L2649.9,826.8z"/>
			<path class="st1" d="M2614,800.7c0,0,4.4-16.1,4.5-38.8c0.2-19.9-7.9-43.1-12.8-42.2c-5,0.8,5.3,14.7,3.3,45.4
				c-0.7,11-0.5,17.3-4.5,30.7L2614,800.7z"/>
			<path class="st1" d="M2434.5,913c0,0-11.9-19.4-36.7-13.1c-14.2,3.6-21.4,21-30.4,23.5c0,0,6.1,12.2,17.6,3.3
				c10.5-8.1,30.3-16,40.8-5.2L2434.5,913z"/>
		</g>
		<g>
			<path class="st1" d="M798.9,1264.2c0,0-0.1,0.3-0.3,0.8c-0.1,0.3-0.1,0.5-0.4,1.1c-0.3,0.7-0.7,1.5-1.3,2.4
				c-1,1.4-2.5,3.1-4.8,4.2c-2.2,1.2-5.3,2-8.7,1.4c-6-0.8-13.4-6.6-13.7-16c-0.1-2.2,0.5-4.9,1-6.5c0.8-2.5,1.9-4.3,3.4-6.3
				c3-3.8,7.5-6.8,12.8-7.8c2.7-0.5,5.5-0.5,8.3,0.1c1.7,0.5,2,0.4,3.7,1.1c1.5,0.5,2.7,1.1,3.9,1.8c4.9,2.8,9.2,7.2,11.6,13
				c2.5,5.6,3,12.7,1.1,18.8c-1.7,6.2-5.2,12.1-10.3,16.7c-5.1,4.6-11.7,7.9-19,8.8c-3.6,0.5-7.4,0.5-11.1-0.2
				c-0.6-0.1-0.6-0.1-1.7-0.3l-1.1-0.3l-2.2-0.6c-1.6-0.5-3.7-1.3-5.4-2c-13.5-6-24.6-19.6-26.7-35.9c-0.6-4-0.5-8.2-0.1-12.4
				l0.5-3.1l0.1-0.8l0.3-1l0.4-1.3c0.5-1.8,0.8-3.3,1.7-5.5c3-8.2,7.4-15.1,13.3-21.3c11.7-12.3,29.5-19.7,47.7-18.5
				c2.3,0.1,4.5,0.3,6.8,0.7c1.2,0.2,2.2,0.3,3.5,0.6l2.9,0.7c4.6,1.2,8.7,2.7,12.9,4.5c8.3,3.7,16,9,22.6,15.5
				c13.3,13.1,21.7,31.1,23.9,50.1c2.2,19-2.2,39.1-13,55.8c-10.7,16.7-27.3,29.2-45.5,36.4c-18.2,7.3-37.7,10-56.8,10.2
				c-18.3,0-36.8,0-55.2,0.1c-73.7-0.1-147.3-0.1-216.3-0.2c-34.5-0.1-67.9-0.3-99.6-0.8c-15.9-0.2-31.3-0.5-46.2-0.7
				c-7.5-0.2-14.5,0.1-22.8-1.3c-7.7-1.2-15.3-3.5-22.1-6.9c-13.8-6.7-24.6-17.8-31.1-29.9c-6.6-12.1-9.6-25.1-9.7-37.3
				c-0.5-11.8,2.3-23.8,7.3-33.2c4.9-9.6,12.2-16.9,19.7-21.7c7.5-4.6,15.1-7.3,21.8-8.6c6.7-1.2,12.5-1.3,17.1-0.9
				c4.6,0.3,8.2,1.1,10.5,1.6c2.4,0.6,3.6,1,3.8,1.1c2.5,0.9,3.8,3.6,2.9,6.1c-0.9,2.5-3.6,3.8-6,2.9c0.3,0.1-3.8-1.4-11.7-1.8
				c-7.9-0.4-20,0.6-32.3,8.8c-11.9,7.8-22,24.6-20.4,45.5c0.6,20.2,11.8,44.2,34.4,54.8c5.6,2.6,11.7,4.4,18.2,5.3
				c5.9,1,13.6,0.8,21,0.8c14.8,0,30.2,0,46,0c31.6-0.2,65-0.3,99.5-0.5c69-0.3,142.7-0.6,216.3-0.8c18.4-0.1,36.8-0.1,55.1-0.2
				c17.5,0,34.8-2.5,50.4-8.6c15.5-6.1,28.9-16.2,37.5-29.5c8.7-13.2,12.2-29.3,10.6-44.6c-1.6-15.3-8.4-29.8-18.8-40.1
				c-10.5-10.3-24-16.8-37.9-17.9c-13.5-1.1-26.9,4.1-35.8,13.2c-4.5,4.4-8.1,10.1-10.1,15.4c-0.6,1.1-1.1,3.1-1.6,4.7l-0.4,1.3
				l-0.1,0.3c-0.1,0.4,0-0.2,0-0.1l-0.1,0.5l-0.4,2.1c-0.4,2.8-0.5,5.7-0.1,8.5c1.2,11.3,8.8,20.9,18.2,25.3c1.2,0.5,2,0.9,3.3,1.4
				l2.2,0.7l1.1,0.3c-0.4-0.1,0.4,0.1,0.5,0.1c2.3,0.5,4.7,0.6,6.9,0.4c4.6-0.4,8.9-2.4,12.2-5.2c6.7-5.7,9.6-14.9,6.7-21.3
				c-1.3-3.3-3.7-5.9-6.4-7.7c-0.7-0.4-1.5-0.8-2-1c-0.3-0.2-2.1-0.7-2.4-0.8c-1.3-0.3-2.7-0.4-4-0.2c-2.6,0.4-4.9,1.8-6.4,3.6
				c-0.7,0.8-1.4,2.1-1.7,2.8c-0.6,1.5-0.7,2.1-0.7,3.1c0,3.6,2.9,6.1,5.2,6.5c1.8,0.4,3.3-0.7,3.8-1.4c0-0.1,0.1-0.1,0.2-0.2
				c0.1-0.1,0.2-0.7,0.3-0.9c0.2-0.5,0.3-0.8,0.3-0.8c0.9-2.5,3.6-3.8,6.1-2.9C798.4,1259.1,799.7,1261.8,798.9,1264.2z"/>
			<path class="st1" d="M475.1,1044.8c-17.8-9.7-37.6-14-53.2-11.8c-0.3-12.4,5.4-24.7,9-31c4.7-8.1,1.6-10.8-4.3-5.3
				c-5.9,5.5-9,14.8-13.7,10.1c-4.7-4.6-4.9-17.8-9.4-15.5c-4.1,2,4.7,22.5-3.6,21.2c-8.2-1.3-22.2-6.7-22-3.1
				c0.2,3.6,13.5,8.7,10,11.7c-3.6,3.1-25.1,3.8-3.9,10.5c7.9,2.5,13.3,5.7,17.1,8.8c-24.2,13.9-47.4,44.5-48.7,76.6
				c-37.5-73.1-74.2-96.3-47.5-21.9c37.5,104.6-46.4,170.4,108.7,175.4c85.4,2.7,258.1,4.1,289.8-15.9
				c44.1-27.6,26.7-130.4,96.2-151.4c0,0-64.7-44.6-107.5,32.1c-5.9,10.6-11.3,21.1-16,19.8c-12.1-3.3,5.2-57.6-64.2-89.4
				c0,0,57.9-1.1,67-20.5c9-19.4-2.3-29.1-33.6-20.1c-31.3,9.1-37.8,7.6-43.5,1c-13.3-15.5-28.7-40.1-58.6-48.7
				c0,0,3.5-8.9,1.8-10.2c-1.5-1.2-6.7-2.7-11-3.2c-10.9-1.4-12.2-6.9-12.2-6.9c-5.8-38.5-62-43.6-89.5-21
				c-15.2,12.5-18,27.6-11.4,48.3c0,0,8.2-31.9,28.1-26.1c16.5,4.8-4.3,26.6,23.8,47.9C483.3,1014,463.4,1027.6,475.1,1044.8z"/>
			<g>
				<path class="st1" d="M794.4,1364.3c-103-26.6-106.3-154.9-106.3-156.2l11.1-0.2c0,1.2,3.2,121.2,98,145.6L794.4,1364.3z"/>
			</g>
			<g>
				<path class="st1" d="M622.2,1361.6c-60.8-70.2-14.1-161.4-13.7-162.3l9.9,5.2c-0.4,0.8-43.5,85.4,12.2,149.8L622.2,1361.6z"/>
			</g>
			<g>
				<path class="st1" d="M322.7,1363.1l-7-8.7c43.5-34.9,49-92.8,39.1-122.8l10.6-3.5C378.4,1267.2,366,1328.4,322.7,1363.1z"/>
			</g>
			<g>
				<path class="st1" d="M442.2,1366.5l-7.1-8.6c54.6-45.3,40.7-135.8,40.5-136.7l11-1.8C487.3,1223.5,501.7,1317.1,442.2,1366.5z"
					/>
			</g>
			<path class="st1" d="M430.7,983.7c0,5.3-4.3,9.6-9.5,9.6c-5.3,0-9.6-4.3-9.6-9.6c0-5.3,4.3-9.6,9.6-9.6
				C426.4,974.1,430.7,978.4,430.7,983.7z"/>
		</g>
		<g>
			<path class="st1" d="M668.9,1040.4l-2.6-5.5c246.2-114.3,516.6-126.7,782.1-35.8c103.2,35.3,198.8-4,291.2-41.9
				c72-29.6,140-57.5,206.3-47.6c25.6,3.8,46.2,12.4,68,21.6c33.8,14.1,68.7,28.8,128.3,29.2c62.6,0.3,112.8-26.5,166.1-55.1
				c85.8-45.9,174.5-93.4,324.8-35.4l-2.2,5.7c-147.7-57-235.1-10.2-319.7,35.1c-53.6,28.7-104.2,55.8-167.6,55.8c-0.5,0-1,0-1.5,0
				c-60.8-0.4-97.9-15.9-130.6-29.6c-21.5-9-41.7-17.5-66.6-21.2c-64.7-9.7-131.9,18-203.1,47.3c-93.5,38.4-190.1,78.1-295.5,42.1
				C1182.5,914.4,913.6,926.7,668.9,1040.4z"/>
		</g>
	</g>
</g>
</svg>
